<?xml version="1.0" encoding="UTF-8"?>
<!DOCTYPE svg PUBLIC "-//W3C//DTD SVG 1.1//EN" "http://www.w3.org/Graphics/SVG/1.1/DTD/svg11.dtd">
<!-- Creator: CorelDRAW 2019 (64-Bit) -->
<svg xmlns="http://www.w3.org/2000/svg" xml:space="preserve" width="37.9328mm" height="73.19mm" version="1.1" style="shape-rendering:geometricPrecision; text-rendering:geometricPrecision; image-rendering:optimizeQuality; fill-rule:evenodd; clip-rule:evenodd"
viewBox="0 0 457.59 882.9"
 xmlns:xlink="http://www.w3.org/1999/xlink">
 <defs>
  <style type="text/css">
   <![CDATA[
    .fil0 {fill:white}
   ]]>
  </style>
 </defs>
 <g id="Layer_x0020_1">
  <metadata id="CorelCorpID_0Corel-Layer"/>
  <path class="fil0" d="M136.18 882.9l160.34 -0.02c2.14,-7.11 0.78,-178.28 0.78,-200.97 0,-67.07 0,-134.14 0,-201.21l134.93 -0.35 20.33 -156.7 -155.25 -0.05c0,-24.3 -1.16,-103.13 1.24,-121.31 2.66,-20.12 9.37,-32.09 20.39,-40.84 9.77,-7.76 30.74,-14.89 47.03,-13.79 8.14,-3.36 76.69,-1.2 91.63,-1.2l-0.07 -139.74c-77.45,-5.71 -147.25,-16.73 -217.32,13.7 -57.11,24.81 -92.22,81 -101.44,142.66 -5.17,34.54 -3.38,120.61 -3.38,160.19l-135.22 0.35 -0.16 156.64 135.38 0.13 0 301.61c0,15.45 -1.81,92.27 0.79,100.9z"/>
 </g>
</svg>
