<?xml version="1.0" encoding="UTF-8"?>
<!DOCTYPE svg PUBLIC "-//W3C//DTD SVG 1.1//EN" "http://www.w3.org/Graphics/SVG/1.1/DTD/svg11.dtd">
<!-- Creator: CorelDRAW 2019 (64-Bit) -->
<svg xmlns="http://www.w3.org/2000/svg" xml:space="preserve" width="55.0475mm" height="56.1701mm" version="1.1" style="shape-rendering:geometricPrecision; text-rendering:geometricPrecision; image-rendering:optimizeQuality; fill-rule:evenodd; clip-rule:evenodd"
viewBox="0 0 6025.27 6148.14"
 xmlns:xlink="http://www.w3.org/1999/xlink">
 <defs>
  <style type="text/css">
   <![CDATA[
    .fil1 {fill:#2CA24C}
    .fil2 {fill:#3A7CEC}
    .fil0 {fill:#E33E2B}
    .fil3 {fill:#F1B401}
   ]]>
  </style>
 </defs>
 <g id="Layer_x0020_1">
  <metadata id="CorelCorpID_0Corel-Layer"/>
  <g id="_2214665422160">
   <path class="fil0" d="M326.42 1700.03c37.61,13.45 440,331.53 502.79,381.88l503.58 388.57c74.9,-147.27 56.71,-178.6 185.25,-387.21 405.96,-658.84 1192.32,-1027.09 1990.21,-835.79 158.03,37.89 288.84,93.74 418.74,164.82 162.25,88.78 317.48,233.63 341.11,244.81l859.4 -851.58c-59.29,-92.88 -396.53,-325.6 -520.1,-398.13 -1087.61,-638.44 -2510.23,-512.09 -3467.82,278.14 -270.26,223.03 -448.68,427.69 -644.94,717.72 -47.65,70.42 -137.47,215.87 -168.23,296.78z"/>
   <path class="fil1" d="M334.63 4463.99c30.22,81.61 123.35,225.29 166.36,290.9 114.53,174.72 259.15,351.46 402.15,496.7 938.07,952.72 2479.21,1171.1 3678.28,534.76 126.61,-67.19 451.43,-281.49 522.5,-375.14 -29.26,-42.82 -203.65,-168.97 -242.21,-198.42 -152.81,-116.75 -338.24,-272.94 -486.68,-376.01 -81.41,-56.53 -193.98,-171.96 -245.15,-181.35 -149.13,74.36 -153.16,107.8 -367.67,181.64 -880.88,303.24 -1798.99,-20.99 -2258.71,-797.37 -99.71,-168.4 -142.25,-312.98 -171.71,-362.39 -42.38,26.25 -78.13,60.15 -125.86,95.83 -250.18,187.05 -501.21,394.26 -751.41,583.08 -19.47,14.69 -42.2,32.39 -63.04,48.19 -5.39,4.07 -28.63,21.45 -31.42,24.03 -23.66,21.78 -14.01,9.51 -25.42,35.55z"/>
   <path class="fil2" d="M4129.88 4655.43c51.17,9.39 163.73,124.81 245.15,181.35 148.44,103.07 333.87,259.27 486.68,376.01 38.56,29.45 212.96,155.6 242.21,198.42 29.39,-15.42 204.45,-203.82 238.25,-244.89 424.71,-516.01 619.6,-1080.89 675.63,-1762.42 16.25,-197.75 8.75,-734.59 -50.78,-897.5 -19.12,-21.06 -2330.7,-8.13 -2523.7,-8.13 -80.06,0 -302.86,-9.86 -365.97,4.49l-0.79 1187.73c69.34,15.86 1543.8,3.35 1672.34,5.56 1.95,161.21 -149.55,460.04 -220.67,563.52 -135.82,197.66 -214.74,245.09 -398.36,395.87z"/>
   <path class="fil3" d="M334.63 4463.99c11.41,-26.04 1.75,-13.77 25.42,-35.55 2.79,-2.57 26.04,-19.95 31.42,-24.03 20.84,-15.81 43.56,-33.5 63.04,-48.19 250.2,-188.82 501.23,-396.03 751.41,-583.08 47.73,-35.68 83.48,-69.58 125.86,-95.83 -34.88,-217.76 -94.84,-246.2 -95.54,-604.51 -0.23,-118.61 9.52,-207.3 26.75,-316.05 16.62,-104.95 55.54,-197.17 69.8,-286.26l-503.58 -388.57c-62.78,-50.35 -465.18,-368.43 -502.79,-381.88 -84.36,125.51 -185.3,439.14 -232.99,617.94 -157.51,590.54 -111.8,1279.78 106.54,1848.72 31.93,83.19 91.91,233.69 134.65,297.29z"/>
  </g>
 </g>
</svg>
